Due Date (2010)(720p.BluRay2DivX)(Nl subs) RETAIL TBS       
 
 
  


Verenigde Staten
Komedie / Roadmovie
100 minuten

geregisseerd door Todd Phillips
met Robert Downey Jr., Zach Galifianakis en Michelle Monaghan

Peter Highman (Robert Downey Jr.) staat op het punt voor de eerste keer vader te worden. Zijn vrouw is al over vijf dagen uitgerekend. Terwijl Peter zich haast om een vlucht naar huis te halen zodat hij bij de bevalling kan zijn, gaan zijn beste bedoelingen volledig de mist in wanneer hij per toeval acteur in spé Ethan Tremblay (Zach Galifianakis) tegenkomt. Ethan dringt Peter een lift op en zo begint hun rit door het land. Verschillende auto?s, talloze vriendschappen en Peters zenuwen delven tijdens deze rit het onderspit.


Storyline

Peter Highman (Robert Downey Jr.) must get to LA in five days to be at the birth of his firstborn. He is about to fly home from Atlanta when his luggage and wallet are sent to LA without him, and he is put on the "no-fly" list. Desperate to get home Peter is forced to accept the offer of Ethan Tremblay (Zach Galifianakis) to hitch a ride with him cross-country. Peter is about to go on the most terrifying and agonizing journey of his life.


INFO

Source.............: Due.Date.720p.BluRay.x264-CROSSBOW 
Audio..............: Engels
Subtitles..........: Vertaald door Depositair, Badgast, Ehr Asjee en Suurtje 
Controle...........: Suurtje 
Bewerking+Resync...: Suurtje
Avi.....1.CD.......: Zelda
Categorie..........: Beeld 
Formaat............: DivX 
Bron...............: Retail
Subs...............: Dutch (Selectable) 
Ondertitels........: Nederlands (extern)
Thanks.............: ed1970  
 
General

Format                           : AVI
Format/Info                      : Audio Video Interleave
File size                        : 697 MiB
Duration                         : 1h 35mn
Overall bit rate                 : 1 023 Kbps
Writing application              : FairUse Wizard - http://fairusewizard.com
Writing library                  : The best and REALLY easy backup tool

Video
ID                               : 0
Format                           : MPEG-4 Visual
Format profile                   : Advanced Simple@L5
Format settings, BVOP            : Yes
Format settings, QPel            : No
Format settings, GMC             : No warppoints
Format settings, Matrix          : Default (H.263)
Muxing mode                      : Packed bitstream
Codec ID                         : XVID
Codec ID/Hint                    : XviD
Duration                         : 1h 35mn
Bit rate                         : 886 Kbps
Width                            : 608 pixels
Height                           : 336 pixels
Display aspect ratio             : 16:9
Frame rate                       : 23.976 fps
Color space                      : YUV
Chroma subsampling               : 4:2:0
Bit depth                        : 8 bits
Scan type                        : Progressive
Bits/(Pixel*Frame)               : 0.181
Stream size                      : 603 MiB (87%)
Writing library                  : XviD 1.2.0.dev47 (UTC 2006-11-01)

Audio
ID                               : 1
Format                           : MPEG Audio
Format version                   : Version 1
Format profile                   : Layer 3
Mode                             : Joint stereo
Mode extension                   : MS Stereo
Codec ID                         : 55
Codec ID/Hint                    : MP3
Duration                         : 1h 35mn
Bit rate mode                    : Constant
Bit rate                         : 128 Kbps
Channel(s)                       : 2 channels
Sampling rate                    : 48.0 KHz
Stream size                      : 87.2 MiB (13%)
Alignment                        : Aligned on interleaves
Interleave, duration             : 42 ms (1.00 video frame)
Interleave, preload duration     : 504 ms
Writing library                  : LAME3.97 
Encoding settings                : -m j -V 4 -q 2 -lowpass 17 -b 128   
  
http://www.imdb.com/title/tt1231583  
http://www.moviemeter.nl/film/62253 